<svg width="40" height="48" viewBox="0 0 40 48" fill="none" xmlns="http://www.w3.org/2000/svg">
<g id="Apple_logo_black 1" clip-path="url(#clip0_5_36)">
<path id="Vector" d="M37.8052 16.2333C37.527 16.4476 32.6148 19.1952 32.6148 25.3048C32.6148 32.3714 38.8653 34.8714 39.0524 34.9333C39.0236 35.0857 38.0594 38.3571 35.7569 41.6905C33.7038 44.6238 31.5595 47.5524 28.2975 47.5524C25.0356 47.5524 24.1961 45.6714 20.4304 45.6714C16.7607 45.6714 15.4559 47.6143 12.4722 47.6143C9.48847 47.6143 7.40658 44.9 5.01287 41.5667C2.2402 37.6524 0 31.5714 0 25.8C0 16.5429 6.06341 11.6333 12.0309 11.6333C15.2017 11.6333 17.8449 13.7 19.8356 13.7C21.7304 13.7 24.6854 11.5095 28.2927 11.5095C29.6599 11.5095 34.572 11.6333 37.8052 16.2333ZM26.5802 7.59048C28.0721 5.83333 29.1274 3.39524 29.1274 0.957143C29.1274 0.619048 29.0986 0.27619 29.0363 0C26.609 0.0904762 23.7212 1.60476 21.9799 3.60952C20.6127 5.15238 19.3367 7.59048 19.3367 10.0619C19.3367 10.4333 19.3991 10.8048 19.4279 10.9238C19.5814 10.9524 19.8308 10.9857 20.0803 10.9857C22.2581 10.9857 24.9972 9.5381 26.5802 7.59048Z" fill="black"/>
</g>
<defs>
<clipPath id="clip0_5_36">
<rect width="40" height="47.619" fill="white"/>
</clipPath>
</defs>
</svg>
